HIERARCHY
ROOT Hips
{
	OFFSET 0.000000 0.000000 0.000000 
	CHANNELS 6 Xposition Yposition Zposition Zrotation Yrotation Xrotation
	JOINT LeftUpLeg
	{
		OFFSET 1.363060 -1.794630 0.839290 
		CHANNELS 3 Zrotation Yrotation Xrotation
		JOINT LeftLeg
		{
			OFFSET 2.448110 -6.726130 0.000000 
			CHANNELS 3 Zrotation Yrotation Xrotation
			JOINT LeftFoot
			{
				OFFSET 2.562200 -7.039590 0.000000 
				CHANNELS 3 Zrotation Yrotation Xrotation
				JOINT LeftToeBase
				{
					OFFSET 0.157640 -0.433110 2.322550 
					CHANNELS 3 Zrotation Yrotation Xrotation
					End Site
					{
						OFFSET 0.000000 0.000000 0.000000 
					}
				}
			}
		}
	}
	JOINT RightUpLeg
	{
		OFFSET -1.305520 -1.794630 0.839290 
		CHANNELS 3 Zrotation Yrotation Xrotation
		JOINT RightLeg
		{
			OFFSET -2.542530 -6.985550 0.000000 
			CHANNELS 3 Zrotation Yrotation Xrotation
			JOINT RightFoot
			{
				OFFSET -2.568260 -7.056230 0.000000 
				CHANNELS 3 Zrotation Yrotation Xrotation
				JOINT RightToeBase
				{
					OFFSET -0.164730 -0.452590 2.363150 
					CHANNELS 3 Zrotation Yrotation Xrotation
					End Site
					{
						OFFSET 0.000000 0.000000 0.000000 
					}
				}
			}
		}
	}
	JOINT Spine
	{
		OFFSET 0.028270 2.035590 -0.193380 
		CHANNELS 3 Zrotation Yrotation Xrotation
		JOINT Spine1
		{
			OFFSET 0.056720 2.048850 -0.042750 
			CHANNELS 3 Zrotation Yrotation Xrotation
			JOINT Neck1
			{
				OFFSET -0.054170 1.746240 0.172020 
				CHANNELS 3 Zrotation Yrotation Xrotation
				JOINT Head
				{
					OFFSET 0.104070 1.761360 -0.123970 
					CHANNELS 3 Zrotation Yrotation Xrotation
					End Site
					{
						OFFSET 0.000000 0.000000 0.000000 
					}
				}
			}
			JOINT LeftArm
			{
				OFFSET 3.362410 1.200890 -0.311210 
				CHANNELS 3 Zrotation Yrotation Xrotation
				JOINT LeftForeArm
				{
					OFFSET 4.983000 -0.000000 -0.000000 
					CHANNELS 3 Zrotation Yrotation Xrotation
					JOINT LeftHand
					{
						OFFSET 3.483560 -0.000000 -0.000000 
						CHANNELS 3 Zrotation Yrotation Xrotation
						JOINT LeftHandIndex1
						{
							OFFSET 0.715260 -0.000000 -0.000000 
							CHANNELS 3 Zrotation Yrotation Xrotation
							End Site
							{
								OFFSET 0.000000 0.000000 0.000000 
							}
						}
					}
				}
			}
			JOINT RightArm
			{
				OFFSET -3.136600 1.374050 -0.404650 
				CHANNELS 3 Zrotation Yrotation Xrotation
				JOINT RightForeArm
				{
					OFFSET -5.241900 -0.000000 -0.000000 
					CHANNELS 3 Zrotation Yrotation Xrotation
					JOINT RightHand
					{
						OFFSET -3.444170 -0.000000 -0.000000 
						CHANNELS 3 Zrotation Yrotation Xrotation
						JOINT RightHandIndex1
						{
							OFFSET -0.622530 -0.000000 -0.000000 
							CHANNELS 3 Zrotation Yrotation Xrotation
							End Site
							{
								OFFSET 0.000000 0.000000 0.000000 
							}
						}
					}
				}
			}
		}
	}
}
MOTION
Frames: 17
Frame Time: 0.041667
-11.160923 18.091567 -0.054386 0.867696 -21.154947 -1.648262 -20.045216 -4.697140 2.909325 2.232885 10.195013 32.527199 0.790325 -8.418752 18.827812 0.580300 -4.878000 -13.560800 17.464504 5.766194 -14.873760 -1.024169 -7.679449 22.597263 -0.258358 -0.370591 6.518873 -0.001900 -0.280100 0.769700 1.551170 0.589927 0.997958 1.428141 0.223352 -4.377066 4.810931 -3.067343 24.085247 3.870300 -2.298200 16.452100 -83.835596 3.726506 19.346689 15.848997 -22.513542 -3.756175 -1.248872 -2.264299 7.143779 -7.125000 0.000000 0.000000 83.443451 -5.005597 15.420928 -15.743903 23.220824 -3.428986 0.406943 -0.139382 5.896695 7.125000 0.000000 0.000000 
-11.239447 18.108293 0.045071 0.645616 -20.821055 -1.600571 -19.571149 -4.653243 1.809216 2.616175 10.735685 34.329974 0.938868 -8.313688 21.298542 0.529700 -4.663600 -12.951700 17.853579 5.495121 -14.206310 -0.981238 -7.547697 22.263298 -0.236791 -0.442777 6.363147 -0.008500 -0.596000 1.637900 1.571685 0.586978 1.009433 1.321089 0.223904 -4.354601 4.863730 -3.117243 24.001901 3.876400 -2.297000 16.460800 -83.780836 3.783073 19.115832 15.556059 -22.108321 -3.608184 -1.271161 -2.265971 7.346296 -7.125000 0.000000 0.000000 83.437825 -5.070346 15.780185 -15.870133 23.398834 -3.486557 0.406025 -0.134519 5.699127 7.125000 0.000000 0.000000 
-11.313765 18.118710 0.148735 0.410645 -20.523128 -1.513074 -19.114953 -4.691772 0.716001 3.020129 11.271073 36.128063 1.096821 -7.809476 23.463926 0.338400 -3.738500 -10.342200 18.226683 5.125279 -13.627753 -0.933728 -7.404281 21.896015 -0.239439 -0.378220 6.234246 -0.020200 -0.917300 2.521400 1.560532 0.618656 1.031251 1.109867 0.241181 -4.231303 4.820930 -3.180866 23.886643 3.818200 -2.302000 16.423000 -83.603227 3.902246 19.187693 15.345243 -21.828416 -3.506220 -1.275652 -2.303279 7.448551 -7.125000 0.000000 0.000000 83.512121 -5.039399 15.946784 -15.935217 23.496623 -3.518181 0.403937 -0.129200 5.703606 7.125000 0.000000 0.000000 
-11.384677 18.129026 0.251096 0.031326 -20.165037 -1.434017 -18.526206 -4.831550 -0.307998 3.445196 11.799787 37.937030 1.274581 -7.304940 25.513576 0.137800 -2.392300 -6.591200 18.749725 4.516836 -13.068894 -0.883458 -7.249730 21.500302 -0.239863 -0.306887 5.976255 -0.018900 -0.887000 2.438100 1.598425 0.675089 1.066139 0.932552 0.268106 -4.146821 4.835736 -3.314136 23.825969 3.788500 -2.337200 16.426500 -83.474602 4.048397 19.385416 15.191859 -21.622177 -3.436258 -1.256676 -2.302768 7.532473 -7.125000 0.000000 0.000000 83.544835 -4.948200 15.944616 -15.928675 23.494587 -3.516477 0.404934 -0.135082 5.804707 7.125000 0.000000 0.000000 
-11.453385 18.136538 0.349051 -0.354817 -19.736645 -1.448272 -17.917460 -4.957597 -1.305382 3.897980 12.323613 39.790271 1.464908 -6.986469 27.452215 0.024800 -1.016400 -2.793900 19.280731 3.940498 -12.392341 -0.827876 -7.076245 21.050963 -0.221057 -0.348382 5.716478 -0.016700 -0.835500 2.296200 1.663435 0.676434 1.042453 0.807341 0.270870 -4.279056 4.953212 -3.382009 23.772441 3.845300 -2.356300 16.382200 -83.436467 4.343314 19.548826 15.029926 -21.400674 -3.361892 -1.255756 -2.291178 7.615629 -7.125000 0.000000 0.000000 83.487916 -5.154637 16.194609 -16.011023 23.610112 -3.553467 0.410076 -0.143608 5.744216 7.125000 0.000000 0.000000 
-11.519690 18.145151 0.444903 -0.700040 -19.417140 -1.433613 -17.341785 -4.981650 -2.389540 4.383234 12.846884 41.698384 1.632411 -6.635020 29.000232 0.000300 0.109900 0.302000 19.764144 3.417031 -11.683168 -0.762895 -6.872983 20.521424 -0.226595 -0.262771 5.583251 -0.015900 -0.814100 2.237400 1.723277 0.683565 1.020088 0.672890 0.276446 -4.369502 5.018705 -3.377343 23.661049 3.891300 -2.354900 16.284300 -83.432257 4.607901 19.610030 14.881965 -21.196209 -3.293416 -1.229590 -2.313782 7.781923 -7.125000 0.000000 0.000000 83.341721 -5.391161 16.702476 -16.162698 23.823966 -3.623566 0.411057 -0.143984 5.569318 7.125000 0.000000 0.000000 
-11.584292 18.149659 0.537248 -1.053203 -19.091085 -1.369482 -16.768089 -5.034141 -3.549171 4.878021 13.352157 43.606820 1.732018 -6.457441 29.894839 0.017200 0.847300 2.328700 20.270136 2.887908 -11.048627 -0.697883 -6.666152 19.979197 -0.219509 -0.253026 5.447567 -0.005000 -0.456000 1.252900 1.816391 0.662717 1.045555 0.639632 0.265988 -4.309499 5.030105 -3.300680 23.463570 3.914000 -2.323100 16.152800 -83.497175 4.661033 19.545874 14.715508 -20.953891 -3.214902 -1.208132 -2.312724 8.139882 -7.125000 0.000000 0.000000 83.081657 -5.374594 17.325337 -16.278981 23.986454 -3.678215 0.410622 -0.131726 5.244876 7.125000 0.000000 0.000000 
-11.648293 18.152463 0.626389 -1.495369 -18.689384 -1.293104 -16.085090 -5.137049 -4.697901 5.362203 13.824821 45.477624 1.762375 -6.787563 30.262567 0.028800 1.095000 3.010300 20.887030 2.430440 -10.398169 -0.636178 -6.465197 19.452380 -0.177792 -0.431088 5.197811 -0.001000 -0.207600 0.570300 1.904328 0.693513 1.091378 0.556803 0.279083 -4.255807 5.057233 -3.364329 23.317251 3.906300 -2.332400 16.098000 -83.428913 4.602265 19.764615 14.542127 -20.700674 -3.136338 -1.206546 -2.281865 8.486952 -7.125000 0.000000 0.000000 82.956415 -5.219946 17.596487 -16.326950 24.055763 -3.700857 0.412604 -0.131629 5.162233 7.125000 0.000000 0.000000 
-11.710591 18.157671 0.716732 -1.872116 -18.387041 -1.311964 -15.497568 -5.117543 -5.782443 5.829950 14.256120 47.267684 1.697409 -7.330851 29.896545 0.026100 1.043400 2.868200 21.414115 1.970818 -9.721676 -0.581172 -6.276562 18.963369 -0.152714 -0.518174 4.978288 -0.000700 -0.174800 0.480300 1.936818 0.810047 1.111022 0.366066 0.336932 -4.313136 5.148840 -3.548641 23.162340 3.910400 -2.384600 16.005300 -83.280939 4.703250 20.180349 14.434954 -20.551900 -3.091401 -1.216938 -2.255920 8.731624 -7.125000 0.000000 0.000000 82.930223 -5.141067 17.668229 -16.347715 24.088625 -3.711417 0.412213 -0.134086 5.182270 7.125000 0.000000 0.000000 
-11.769885 18.160476 0.806473 -2.226098 -18.196389 -1.386455 -14.955283 -4.918352 -6.828173 6.273427 14.645360 48.960205 1.532667 -8.155830 28.706464 0.003100 0.361600 0.993400 21.914579 1.469811 -9.044987 -0.532793 -6.099220 18.511022 -0.147750 -0.495987 4.821976 -0.001000 -0.207000 0.568700 2.008364 0.920018 1.132130 0.271733 0.391980 -4.431793 5.186297 -3.610607 22.923182 3.924700 -2.407200 15.846300 -83.286290 4.872693 20.458918 14.385917 -20.482465 -3.071211 -1.224031 -2.245622 8.992839 -7.125000 0.000000 0.000000 82.743488 -5.049536 17.976546 -16.406571 24.168585 -3.739683 0.407092 -0.120258 5.209807 7.125000 0.000000 0.000000 
-11.829779 18.160075 0.894512 -2.514066 -18.011664 -1.470223 -14.476153 -4.690882 -7.871456 6.694913 14.997981 50.512904 1.335890 -8.667640 27.027696 0.000600 -0.160500 -0.440900 22.356836 1.129024 -8.380464 -0.496600 -5.960243 18.160826 -0.118026 -0.614700 4.591010 -0.000900 -0.195400 0.537000 2.063234 1.054778 1.159158 0.206087 0.458745 -4.540419 5.289857 -3.680063 22.788813 3.977200 -2.429100 15.775500 -83.226133 4.928368 20.871671 14.313211 -20.376858 -3.040907 -1.227599 -2.241760 9.096645 -7.125000 0.000000 0.000000 82.621551 -4.869619 18.117024 -16.433169 24.202989 -3.753510 0.397465 -0.099658 5.456984 7.125000 0.000000 0.000000 
-11.887871 18.157271 0.982752 -2.700196 -17.784932 -1.516710 -14.126221 -4.488478 -8.940201 7.087296 15.312560 51.905514 1.148732 -8.837473 25.170376 0.001700 -0.267900 -0.736200 22.673493 0.798077 -7.871742 -0.474187 -5.863783 17.926725 -0.089833 -0.728763 4.334649 0.000000 0.016100 -0.044300 2.059693 1.153542 1.163584 0.064834 0.507943 -4.624196 5.490417 -3.771743 22.699827 4.069800 -2.445800 15.729100 -83.095624 4.924684 21.092160 14.209037 -20.225545 -2.995646 -1.229167 -2.222443 9.344408 -7.125000 0.000000 0.000000 82.608296 -4.808371 18.157916 -16.451519 24.244452 -3.767532 0.381328 -0.123268 5.535134 7.125000 0.000000 0.000000 
-11.944260 18.154466 1.069188 -2.701056 -17.552256 -1.501811 -13.971100 -4.363258 -10.053670 7.431889 15.580395 53.091328 0.982898 -8.710237 23.272696 0.000100 -0.074100 -0.203700 22.796798 0.479086 -7.584945 -0.461258 -5.801328 17.781794 -0.072070 -0.792223 4.079358 -0.003900 0.402000 -1.104600 2.068913 1.244705 1.100339 0.063143 0.559021 -4.789500 5.563343 -3.781373 22.655538 4.111300 -2.448800 15.667200 -83.201923 5.131819 20.854153 14.177963 -20.180124 -2.980219 -1.250237 -2.188598 9.954497 -7.125000 0.000000 0.000000 82.442601 -4.856807 18.392625 -16.370599 24.147658 -3.732868 0.380046 -0.180483 5.186759 7.125000 0.000000 0.000000 
-11.999748 18.157070 1.158529 -2.682243 -17.415381 -1.500858 -13.859804 -4.120892 -11.130336 7.711417 15.795761 54.041603 0.832450 -8.625482 21.296496 0.002000 -0.288900 -0.793800 22.865502 0.382285 -7.205428 -0.455985 -5.768373 17.715211 -0.037385 -0.949363 3.742617 -0.009300 0.623900 -1.714300 2.087594 1.364268 1.075284 0.107822 0.624563 -4.862490 5.652491 -3.779659 22.703080 4.175800 -2.453200 15.686000 -83.405202 5.406758 20.462859 14.234085 -20.264236 -3.002950 -1.277972 -2.165064 10.643547 -7.125000 0.000000 0.000000 82.218965 -4.761921 18.600418 -16.228645 23.956234 -3.666989 0.390420 -0.217950 5.073420 7.125000 0.000000 0.000000 
-12.052431 18.158473 1.254681 -2.725817 -17.379032 -1.567218 -13.733000 -3.764561 -12.079337 7.923241 15.960761 54.739351 0.718569 -8.342247 19.522665 0.003300 -0.368500 -1.012400 22.969861 0.357140 -6.690062 -0.466683 -5.780150 17.780535 -0.012525 -1.046278 3.305149 -0.004400 0.426200 -1.171100 2.072765 1.511775 1.128393 0.009312 0.700503 -4.773437 5.749396 -3.851709 22.733773 4.219700 -2.474400 15.719100 -83.480895 5.467919 20.185125 14.234740 -20.265543 -2.999047 -1.308547 -2.165228 11.017969 -7.125000 0.000000 0.000000 82.148279 -4.394317 18.518297 -16.051713 23.710519 -3.584709 0.401696 -0.225047 5.347802 7.125000 0.000000 0.000000 
-12.105114 18.157170 1.346526 -2.653264 -17.138313 -1.693350 -13.742268 -3.522677 -12.953782 8.071285 16.081058 55.234386 0.625075 -8.269277 17.871397 0.010600 -0.665700 -1.829300 22.967319 0.118598 -6.277139 -0.485593 -5.813389 17.905089 0.006649 -1.119831 2.834845 -0.003800 0.400200 -1.099500 2.069962 1.566166 1.169608 0.027559 0.732838 -4.727174 5.790152 -3.858792 22.787650 4.250000 -2.480000 15.752400 -83.627798 5.459315 19.774113 14.206037 -20.216266 -2.980031 -1.325800 -2.171506 11.379567 -7.125000 0.000000 0.000000 81.995537 -3.996956 18.437217 -15.863642 23.446220 -3.498886 0.405720 -0.226947 5.582625 7.125000 0.000000 0.000000 
-12.157096 18.152964 1.434565 -2.516238 -16.749676 -1.829325 -13.811618 -3.501764 -13.710180 8.168686 16.166213 55.566699 0.554647 -8.311878 16.424731 0.022700 -0.971900 -2.671500 22.897552 -0.093940 -5.919181 -0.509759 -5.869109 18.085326 0.049112 -1.327731 2.267701 -0.002300 0.309300 -0.849700 2.037317 1.574552 1.202007 0.028544 0.745032 -4.704434 5.749659 -3.897587 22.809820 4.209000 -2.489600 15.768400 -83.735324 5.532273 19.456239 14.249559 -20.278663 -2.997127 -1.328582 -2.169348 11.472283 -7.125000 0.000000 0.000000 81.912295 -3.667943 18.345508 -15.722763 23.250236 -3.436291 0.404154 -0.232702 5.729314 7.125000 0.000000 0.000000 
